<svg xmlns="http://www.w3.org/2000/svg" aria-hidden="true" style="position:absolute;width:0;height:0;overflow:hidden">
  <symbol id="icon-antenna" viewBox="0 0 64 64">
    <path d="M28 6h8v6h-8V6Zm-6 10h20v6H22v-6Zm7 8h6v14h10v6H35v14h-6V44H19v-6h10V24Zm-15 0h6v34h-6V24Zm30 0h6v34h-6V24ZM8 32h6v26H8V32Zm42 0h6v26h-6V32Z" fill="#2E2F42"/>
  </symbol>
  <symbol id="icon-clock" viewBox="0 0 64 64">
    <path d="M32 8c13.255 0 24 10.745 24 24S45.255 56 32 56 8 45.255 8 32 18.745 8 32 8Zm0 6c-9.941 0-18 8.059-18 18s8.059 18 18 18 18-8.059 18-18-8.059-18-18-18Zm-3 8h6v12.757l8.95 5.17-3 5.196L29 38.243V22Z" fill="#2E2F42"/>
  </symbol>
  <symbol id="icon-diagram" viewBox="0 0 64 64">
    <path d="M10 50h44v6H10v-6Zm4-8h8v8h-8v-8Zm0-14h8v12h-8V28Zm14 4h8v18h-8V32Zm14-12h8v30h-8V20ZM14 14h36v6H14v-6Z" fill="#2E2F42"/>
  </symbol>
  <symbol id="icon-astronaut" viewBox="0 0 64 64">
    <path d="M32 6c8.837 0 16 7.163 16 16v8.54c3.52 3.394 6 8.157 6 13.46V58h-6V44c0-2.643-.824-5.093-2.23-7.108A15.945 15.945 0 0 1 32 44a15.945 15.945 0 0 1-13.77-7.108A11.908 11.908 0 0 0 16 44v14h-6V44c0-5.303 2.48-10.066 6-13.46V22c0-8.837 7.163-16 16-16Zm0 6c-5.523 0-10 4.477-10 10v6.152A15.915 15.915 0 0 1 32 24c3.677 0 7.064 1.24 9.77 3.326V22c0-5.523-4.477-10-9.77-10Zm0 18c-4.418 0-8 3.582-8 8s3.582 8 8 8 8-3.582 8-8-3.582-8-8-8Z" fill="#2E2F42"/>
  </symbol>
  <symbol id="icon-instagram" viewBox="0 0 24 24">
    <path d="M7.5 2h9A5.5 5.5 0 0 1 22 7.5v9a5.5 5.5 0 0 1-5.5 5.5h-9A5.5 5.5 0 0 1 2 16.5v-9A5.5 5.5 0 0 1 7.5 2Zm0 2A3.5 3.5 0 0 0 4 7.5v9A3.5 3.5 0 0 0 7.5 20h9a3.5 3.5 0 0 0 3.5-3.5v-9A3.5 3.5 0 0 0 16.5 4h-9Zm10.75 1.5a1.25 1.25 0 1 1 0 2.5 1.25 1.25 0 0 1 0-2.5ZM12 7a5 5 0 1 1 0 10 5 5 0 0 1 0-10Zm0 2a3 3 0 1 0 0 6 3 3 0 0 0 0-6Z" fill="#F4F4FD"/>
  </symbol>
  <symbol id="icon-twitter" viewBox="0 0 24 24">
    <path d="M22 5.924a8.948 8.948 0 0 1-2.592.71A4.527 4.527 0 0 0 21.392 4a9.037 9.037 0 0 1-2.868 1.096A4.514 4.514 0 0 0 10.83 9.21 12.807 12.807 0 0 1 3.24 5.36a4.513 4.513 0 0 0 1.396 6.021 4.49 4.49 0 0 1-2.045-.565v.057a4.517 4.517 0 0 0 3.62 4.426 4.54 4.54 0 0 1-2.038.078 4.522 4.522 0 0 0 4.22 3.138A9.057 9.057 0 0 1 2 20.375 12.784 12.784 0 0 0 8.92 22c8.304 0 12.844-6.88 12.844-12.845 0-.196-.004-.392-.013-.586A9.18 9.18 0 0 0 22 5.924Z" fill="#F4F4FD"/>
  </symbol>
  <symbol id="icon-facebook" viewBox="0 0 24 24">
    <path d="M13.5 22v-8h2.7l.4-3h-3.1V9.1c0-.869.242-1.462 1.489-1.462H16.7V4.954C16.39 4.913 15.326 4.82 14.088 4.82c-2.585 0-4.355 1.578-4.355 4.477V11H6.8v3h2.933v8H13.5Z" fill="#F4F4FD"/>
  </symbol>
  <symbol id="icon-linkedin" viewBox="0 0 24 24">
    <path d="M5.4 8.4A1.8 1.8 0 1 0 5.4 4.8a1.8 1.8 0 0 0 0 3.6ZM3.8 9.8h3.2V20H3.8V9.8Zm5.2 0H12v1.4h.04c.41-.78 1.41-1.6 2.9-1.6 3.1 0 3.66 2.04 3.66 4.7V20H15.4v-5c0-1.2-.02-2.74-1.67-2.74-1.68 0-1.94 1.31-1.94 2.66V20H8.99V9.8Z" fill="#F4F4FD"/>
  </symbol>
</svg>
